<mxfile host="Electron" agent="Mozilla/5.0 (Windows NT 10.0; Win64; x64) AppleWebKit/537.36 (KHTML, like Gecko) draw.io/28.1.2 Chrome/138.0.7204.243 Electron/37.4.0 Safari/537.36" version="28.1.2">
  <diagram name="PÃ¡gina-1" id="uG0_Kq-6M7_iFdaTnF4r">
    <mxGraphModel dx="856" dy="513" grid="1" gridSize="10" guides="1" tooltips="1" connect="1" arrows="1" fold="1" page="1" pageScale="1" pageWidth="827" pageHeight="1169" math="0" shadow="0">
      <root>
        <mxCell id="0" />
        <mxCell id="1" parent="0" />
        <mxCell id="qjx2N8Vpb76r9DvM1guO-50" value="" style="whiteSpace=wrap;html=1;shape=mxgraph.basic.cloud_rect" vertex="1" parent="1">
          <mxGeometry x="90" y="40" width="780" height="340" as="geometry" />
        </mxCell>
        <mxCell id="qjx2N8Vpb76r9DvM1guO-28" value="AWS" style="ellipse;shape=cloud;whiteSpace=wrap;html=1;" vertex="1" parent="1">
          <mxGeometry x="90" y="40" width="226" height="150" as="geometry" />
        </mxCell>
        <mxCell id="qjx2N8Vpb76r9DvM1guO-1" value="" style="outlineConnect=0;dashed=0;verticalLabelPosition=bottom;verticalAlign=top;align=center;html=1;shape=mxgraph.aws3.volume;fillColor=#E05243;gradientColor=none;" vertex="1" parent="1">
          <mxGeometry x="370" y="240" width="52.5" height="75" as="geometry" />
        </mxCell>
        <mxCell id="qjx2N8Vpb76r9DvM1guO-47" style="edgeStyle=orthogonalEdgeStyle;rounded=0;orthogonalLoop=1;jettySize=auto;html=1;" edge="1" parent="1" source="qjx2N8Vpb76r9DvM1guO-2" target="qjx2N8Vpb76r9DvM1guO-1">
          <mxGeometry relative="1" as="geometry">
            <Array as="points">
              <mxPoint x="230" y="278" />
            </Array>
          </mxGeometry>
        </mxCell>
        <mxCell id="qjx2N8Vpb76r9DvM1guO-48" value="Envia Arquivo" style="edgeLabel;html=1;align=center;verticalAlign=middle;resizable=0;points=[];" vertex="1" connectable="0" parent="qjx2N8Vpb76r9DvM1guO-47">
          <mxGeometry x="-0.3203" relative="1" as="geometry">
            <mxPoint as="offset" />
          </mxGeometry>
        </mxCell>
        <mxCell id="qjx2N8Vpb76r9DvM1guO-2" value="" style="verticalLabelPosition=bottom;aspect=fixed;html=1;shape=mxgraph.salesforce.web;fillColorStyles=fillColor2,fillColor3,fillColor4;fillColor2=#032d60;fillColor3=#0d9dda;fillColor4=#ffffff;fillColor=none;strokeColor=none;" vertex="1" parent="1">
          <mxGeometry x="200" y="472.6" width="60" height="47.400000000000006" as="geometry" />
        </mxCell>
        <mxCell id="qjx2N8Vpb76r9DvM1guO-3" value="Actor" style="shape=umlActor;verticalLabelPosition=bottom;verticalAlign=top;html=1;outlineConnect=0;" vertex="1" parent="1">
          <mxGeometry x="384" y="460" width="30" height="60" as="geometry" />
        </mxCell>
        <mxCell id="qjx2N8Vpb76r9DvM1guO-5" value="" style="endArrow=classic;html=1;rounded=0;" edge="1" parent="1">
          <mxGeometry width="50" height="50" relative="1" as="geometry">
            <mxPoint x="361" y="495.79999999999995" as="sourcePoint" />
            <mxPoint x="291" y="495.9" as="targetPoint" />
          </mxGeometry>
        </mxCell>
        <mxCell id="qjx2N8Vpb76r9DvM1guO-30" value="" style="endArrow=classic;html=1;rounded=0;" edge="1" parent="1" source="qjx2N8Vpb76r9DvM1guO-31">
          <mxGeometry width="50" height="50" relative="1" as="geometry">
            <mxPoint x="500" y="277" as="sourcePoint" />
            <mxPoint x="430" y="277.1" as="targetPoint" />
          </mxGeometry>
        </mxCell>
        <mxCell id="qjx2N8Vpb76r9DvM1guO-45" style="edgeStyle=orthogonalEdgeStyle;rounded=0;orthogonalLoop=1;jettySize=auto;html=1;" edge="1" parent="1" source="qjx2N8Vpb76r9DvM1guO-31" target="qjx2N8Vpb76r9DvM1guO-42">
          <mxGeometry relative="1" as="geometry">
            <Array as="points">
              <mxPoint x="610" y="81" />
            </Array>
          </mxGeometry>
        </mxCell>
        <mxCell id="qjx2N8Vpb76r9DvM1guO-49" value="RDS" style="edgeLabel;html=1;align=center;verticalAlign=middle;resizable=0;points=[];" vertex="1" connectable="0" parent="qjx2N8Vpb76r9DvM1guO-45">
          <mxGeometry x="-0.2512" y="1" relative="1" as="geometry">
            <mxPoint as="offset" />
          </mxGeometry>
        </mxCell>
        <mxCell id="qjx2N8Vpb76r9DvM1guO-31" value="" style="verticalLabelPosition=bottom;html=1;verticalAlign=top;strokeWidth=1;align=center;outlineConnect=0;dashed=0;outlineConnect=0;shape=mxgraph.aws3d.application_server;fillColor=#ECECEC;strokeColor=#5E5E5E;aspect=fixed;strokeColor2=#292929;" vertex="1" parent="1">
          <mxGeometry x="550" y="214" width="123" height="124" as="geometry" />
        </mxCell>
        <mxCell id="qjx2N8Vpb76r9DvM1guO-32" value="EC2" style="text;html=1;align=center;verticalAlign=middle;resizable=0;points=[];autosize=1;strokeColor=none;fillColor=none;" vertex="1" parent="1">
          <mxGeometry x="575" y="338" width="50" height="30" as="geometry" />
        </mxCell>
        <mxCell id="qjx2N8Vpb76r9DvM1guO-38" value="" style="outlineConnect=0;dashed=0;verticalLabelPosition=bottom;verticalAlign=top;align=center;html=1;shape=mxgraph.aws3.volume;fillColor=#E05243;gradientColor=none;" vertex="1" parent="1">
          <mxGeometry x="775" y="240" width="52.5" height="75" as="geometry" />
        </mxCell>
        <mxCell id="qjx2N8Vpb76r9DvM1guO-39" value="" style="endArrow=classic;html=1;rounded=0;" edge="1" parent="1">
          <mxGeometry width="50" height="50" relative="1" as="geometry">
            <mxPoint x="680" y="280" as="sourcePoint" />
            <mxPoint x="770" y="279" as="targetPoint" />
            <Array as="points" />
          </mxGeometry>
        </mxCell>
        <mxCell id="qjx2N8Vpb76r9DvM1guO-40" value="D.EBS" style="text;html=1;align=center;verticalAlign=middle;resizable=0;points=[];autosize=1;strokeColor=none;fillColor=none;" vertex="1" parent="1">
          <mxGeometry x="362.5" y="320" width="60" height="30" as="geometry" />
        </mxCell>
        <mxCell id="qjx2N8Vpb76r9DvM1guO-41" value="E.EBS" style="text;html=1;align=center;verticalAlign=middle;resizable=0;points=[];autosize=1;strokeColor=none;fillColor=none;" vertex="1" parent="1">
          <mxGeometry x="775" y="320" width="60" height="30" as="geometry" />
        </mxCell>
        <mxCell id="qjx2N8Vpb76r9DvM1guO-42" value="" style="outlineConnect=0;dashed=0;verticalLabelPosition=bottom;verticalAlign=top;align=center;html=1;shape=mxgraph.aws3.rds;fillColor=#2E73B8;gradientColor=none;" vertex="1" parent="1">
          <mxGeometry x="680" y="40" width="72" height="81" as="geometry" />
        </mxCell>
      </root>
    </mxGraphModel>
  </diagram>
</mxfile>
